<?xml version="1.0" standalone="no"?>
<!DOCTYPE svg PUBLIC "-//W3C//DTD SVG 20010904//EN"
 "http://www.w3.org/TR/2001/REC-SVG-20010904/DTD/svg10.dtd">
<svg version="1.0" xmlns="http://www.w3.org/2000/svg"
 width="1506.000000pt" height="1506.000000pt" viewBox="0 0 1506.000000 1506.000000"
 preserveAspectRatio="xMidYMid meet">
<metadata>
Created by potrace 1.14, written by Peter Selinger 2001-2017
</metadata>
<g transform="translate(0.000000,1506.000000) scale(0.100000,-0.100000)"
fill="#000000" stroke="none">
<path d="M7230 15040 c-359 -14 -876 -74 -970 -113 -17 -7 -79 -16 -165 -24
-33 -3 -63 -10 -66 -15 -4 -6 -27 -13 -53 -15 -26 -3 -49 -10 -52 -14 -3 -5
-23 -9 -45 -9 -21 0 -39 -4 -39 -10 0 -5 -23 -10 -51 -10 -31 0 -56 -6 -65
-15 -9 -8 -33 -15 -55 -15 -21 0 -39 -4 -39 -10 0 -5 -20 -10 -45 -10 -25 0
-45 -4 -45 -10 0 -5 -16 -10 -36 -10 -19 0 -42 -7 -50 -15 -9 -8 -31 -15 -50
-15 -19 0 -34 -4 -34 -10 0 -5 -16 -10 -35 -10 -19 0 -35 -4 -35 -10 0 -5 -16
-10 -35 -10 -19 0 -35 -4 -35 -9 0 -5 -10 -12 -22 -16 -13 -3 -41 -10 -63 -16
-22 -6 -48 -15 -57 -20 -10 -5 -29 -9 -42 -9 -13 0 -26 -7 -30 -15 -3 -9 -18
-15 -36 -15 -16 0 -30 -4 -30 -10 0 -5 -11 -10 -25 -10 -14 0 -25 -4 -25 -10
0 -5 -10 -10 -23 -10 -13 0 -32 -7 -43 -15 -10 -8 -31 -15 -46 -15 -16 0 -28
-4 -28 -10 0 -5 -6 -10 -14 -10 -7 0 -34 -11 -60 -25 -26 -14 -56 -25 -67 -25
-10 0 -19 -4 -19 -10 0 -5 -11 -10 -25 -10 -14 0 -25 -4 -25 -10 0 -5 -16 -12
-35 -16 -19 -3 -35 -10 -35 -15 0 -5 -11 -9 -25 -9 -14 0 -25 -4 -25 -10 0 -5
-11 -10 -25 -10 -14 0 -25 -4 -25 -8 0 -10 -71 -42 -93 -42 -10 0 -17 -4 -17
-10 0 -5 -9 -10 -20 -10 -11 0 -23 -7 -26 -15 -4 -8 -14 -15 -24 -15 -11 0
-22 -4 -25 -10 -3 -5 -15 -10 -26 -10 -10 0 -19 -4 -19 -10 0 -5 -9 -10 -20
-10 -11 0 -23 -7 -26 -15 -4 -8 -17 -15 -30 -15 -13 0 -24 -4 -24 -10 0 -5 -9
-10 -20 -10 -11 0 -20 -4 -20 -10 0 -5 -6 -10 -14 -10 -8 0 -21 -6 -28 -12 -7
-7 -38 -26 -68 -41 -94 -48 -163 -87 -202 -113 -21 -13 -40 -24 -43 -24 -3 0
-28 -16 -55 -35 -27 -19 -51 -35 -53 -35 -3 0 -169 -107 -247 -159 -474 -318
-1077 -856 -1431 -1276 -19 -22 -36 -42 -40 -45 -5 -5 -111 -132 -133 -160 -6
-8 -25 -33 -41 -55 -17 -22 -42 -53 -57 -70 -16 -16 -28 -33 -28 -37 0 -4 -18
-28 -40 -53 -22 -25 -40 -49 -40 -53 0 -4 -11 -20 -25 -36 -14 -16 -25 -32
-25 -36 0 -3 -8 -15 -19 -26 -10 -11 -31 -40 -46 -65 -16 -24 -31 -46 -34 -49
-12 -10 -61 -90 -61 -100 0 -6 -6 -13 -13 -16 -8 -3 -20 -20 -27 -39 -8 -19
-17 -35 -22 -35 -4 0 -8 -7 -8 -15 0 -9 -7 -18 -15 -21 -8 -4 -15 -12 -15 -20
0 -8 -4 -14 -10 -14 -5 0 -10 -9 -10 -20 0 -11 -4 -20 -10 -20 -5 0 -10 -7
-10 -15 0 -8 -4 -15 -9 -15 -10 0 -41 -55 -41 -72 0 -5 -11 -21 -25 -36 -14
-15 -25 -32 -25 -39 0 -7 -4 -13 -10 -13 -5 0 -10 -7 -10 -15 0 -14 -26 -63
-40 -75 -3 -3 -14 -21 -24 -40 -9 -19 -35 -66 -56 -105 -62 -111 -90 -168 -90
-181 0 -6 -7 -17 -15 -24 -8 -7 -15 -21 -15 -31 0 -11 -4 -19 -10 -19 -5 0
-10 -11 -10 -25 0 -14 -4 -25 -10 -25 -5 0 -10 -8 -10 -19 0 -10 -7 -24 -15
-31 -8 -7 -15 -21 -15 -31 0 -11 -4 -19 -10 -19 -5 0 -10 -7 -10 -15 0 -15 -3
-23 -33 -83 -9 -19 -17 -40 -17 -48 0 -8 -4 -14 -10 -14 -5 0 -10 -11 -10 -25
0 -14 -4 -25 -9 -25 -5 0 -12 -16 -15 -35 -4 -19 -11 -35 -16 -35 -6 0 -10
-11 -10 -25 0 -14 -4 -25 -10 -25 -5 0 -10 -13 -10 -29 0 -17 -4 -32 -9 -36
-5 -3 -12 -19 -16 -35 -4 -17 -11 -30 -16 -30 -5 0 -9 -11 -9 -24 0 -14 -5
-28 -10 -31 -6 -3 -10 -17 -10 -30 0 -13 -4 -26 -9 -30 -5 -3 -17 -29 -26 -58
-9 -28 -20 -60 -26 -69 -5 -10 -9 -28 -9 -41 0 -13 -4 -27 -9 -32 -5 -6 -21
-50 -36 -100 -15 -49 -33 -108 -41 -130 -7 -22 -18 -65 -24 -95 -7 -30 -16
-63 -21 -72 -5 -10 -9 -28 -9 -42 0 -13 -7 -40 -15 -59 -8 -20 -15 -52 -15
-72 0 -19 -4 -35 -10 -35 -5 0 -10 -20 -10 -44 0 -25 -4 -48 -10 -51 -5 -3
-10 -20 -10 -36 0 -17 -5 -39 -10 -49 -6 -10 -15 -47 -21 -82 -5 -35 -14 -85
-19 -113 -38 -211 -51 -294 -69 -442 -83 -682 -73 -1382 30 -2063 11 -74 25
-139 30 -144 5 -6 9 -34 9 -63 0 -29 5 -53 10 -53 6 0 10 -17 10 -39 0 -21 7
-52 15 -67 8 -16 15 -46 15 -66 0 -21 5 -38 10 -38 6 0 10 -20 10 -44 0 -25 5
-48 10 -51 6 -3 10 -25 10 -48 0 -23 7 -51 15 -61 8 -11 15 -37 15 -57 0 -21
5 -41 10 -44 6 -3 10 -24 10 -45 0 -21 5 -42 10 -45 6 -3 10 -18 10 -33 0 -15
7 -36 15 -46 8 -11 15 -30 15 -42 0 -13 5 -26 10 -29 6 -3 10 -19 10 -35 0
-16 5 -32 10 -35 6 -3 10 -20 10 -36 0 -17 7 -37 15 -45 8 -9 15 -28 15 -44 0
-16 4 -32 10 -35 5 -3 10 -17 10 -31 0 -13 5 -24 10 -24 6 0 10 -12 10 -26 0
-14 7 -32 15 -40 8 -9 15 -26 15 -40 0 -13 5 -24 10 -24 6 0 10 -8 10 -18 0
-17 17 -60 41 -104 5 -10 9 -29 9 -43 0 -14 5 -25 10 -25 6 0 10 -9 10 -21 0
-11 7 -27 15 -35 8 -9 15 -26 15 -40 0 -13 5 -24 10 -24 6 0 10 -9 10 -19 0
-11 5 -23 10 -26 6 -3 10 -20 10 -36 0 -17 6 -32 15 -35 8 -4 15 -14 15 -24 0
-11 5 -22 10 -25 6 -3 10 -15 10 -26 0 -10 5 -19 10 -19 6 0 10 -11 10 -25 0
-14 4 -25 10 -25 5 0 12 -11 16 -25 3 -14 10 -25 15 -25 5 0 9 -11 9 -25 0
-14 5 -25 10 -25 6 0 10 -8 10 -19 0 -10 7 -24 15 -31 8 -7 15 -16 15 -21 0
-12 42 -103 50 -109 4 -3 21 -35 39 -72 17 -37 36 -70 41 -73 6 -3 10 -15 10
-26 0 -10 5 -19 10 -19 6 0 10 -9 10 -19 0 -10 7 -21 15 -25 8 -3 15 -15 15
-26 0 -11 5 -20 10 -20 6 0 10 -7 10 -15 0 -8 5 -15 10 -15 6 0 10 -9 10 -19
0 -10 7 -21 15 -25 8 -3 15 -12 15 -21 0 -9 9 -25 20 -37 11 -12 20 -30 20
-40 0 -10 4 -18 10 -18 5 0 17 -16 26 -35 9 -19 20 -35 25 -35 5 0 9 -11 9
-25 0 -14 6 -25 13 -25 7 0 19 -16 27 -35 8 -19 17 -35 22 -35 4 0 8 -7 8 -15
0 -9 11 -26 25 -39 14 -13 25 -29 25 -36 0 -7 10 -22 22 -34 13 -12 30 -35 38
-51 8 -17 25 -38 38 -48 12 -10 22 -25 22 -33 0 -9 16 -30 35 -48 19 -19 35
-41 35 -50 0 -9 5 -16 10 -16 6 0 10 -7 10 -15 0 -8 6 -15 13 -15 7 0 19 -15
26 -34 8 -18 24 -41 37 -51 13 -10 24 -24 24 -32 0 -8 20 -34 45 -57 25 -24
45 -49 45 -56 0 -7 16 -27 35 -46 19 -18 35 -37 35 -43 0 -6 4 -11 9 -11 16 0
61 -53 61 -71 0 -11 5 -19 11 -19 10 0 39 -24 39 -33 0 -3 36 -42 80 -86 44
-45 80 -86 80 -91 0 -11 248 -260 259 -260 5 0 41 -32 81 -70 40 -39 74 -70
77 -70 8 0 33 -28 33 -37 0 -4 21 -21 45 -38 25 -16 45 -33 45 -37 0 -5 5 -8
10 -8 6 0 30 -20 54 -45 25 -25 48 -45 53 -45 5 0 33 -22 62 -50 29 -27 59
-50 67 -50 8 0 14 -4 14 -8 0 -5 11 -15 25 -22 14 -7 25 -19 25 -27 0 -7 7
-13 15 -13 8 0 15 -4 15 -10 0 -5 7 -10 15 -10 9 0 32 -16 52 -35 20 -19 42
-35 49 -35 7 0 21 -11 32 -25 11 -14 27 -25 36 -25 9 0 16 -4 16 -10 0 -5 6
-10 13 -10 8 0 20 -11 27 -25 7 -14 20 -25 29 -25 9 0 34 -16 55 -35 22 -19
46 -35 53 -35 7 0 13 -4 13 -10 0 -5 7 -10 15 -10 8 0 15 -7 15 -15 0 -8 9
-15 20 -15 11 0 20 -4 20 -10 0 -5 7 -10 15 -10 8 0 15 -4 15 -10 0 -5 6 -10
13 -10 7 0 24 -11 39 -25 15 -14 33 -25 40 -25 18 -1 48 -25 48 -39 0 -6 11
-11 25 -11 14 0 25 -4 25 -10 0 -5 7 -10 16 -10 9 0 27 -11 40 -25 13 -14 30
-25 39 -25 8 0 15 -4 15 -10 0 -5 7 -10 17 -10 9 0 31 -11 49 -25 18 -14 37
-25 43 -25 6 0 11 -4 11 -10 0 -5 7 -10 15 -10 9 0 32 -10 53 -23 20 -12 51
-29 67 -37 17 -8 35 -19 42 -25 7 -5 19 -16 27 -22 8 -7 24 -13 36 -13 11 0
20 -4 20 -10 0 -5 9 -10 20 -10 11 0 23 -7 26 -15 4 -8 14 -15 24 -15 11 0 22
-4 25 -10 3 -5 15 -10 26 -10 10 0 19 -4 19 -10 0 -5 9 -10 20 -10 11 0 23 -7
26 -15 4 -8 17 -15 30 -15 13 0 24 -4 24 -10 0 -5 7 -10 17 -10 22 0 93 -32
93 -42 0 -4 11 -8 25 -8 14 0 25 -4 25 -10 0 -5 11 -10 25 -10 14 0 25 -4 25
-10 0 -5 9 -10 19 -10 11 0 26 -7 35 -15 8 -8 22 -15 30 -15 9 0 24 -4 34 -9
28 -14 65 -29 90 -36 12 -4 22 -11 22 -16 0 -5 13 -9 29 -9 17 0 33 -5 36 -10
3 -6 15 -10 26 -10 11 0 27 -7 35 -15 9 -8 26 -15 40 -15 13 0 24 -4 24 -10 0
-5 11 -10 25 -10 14 0 25 -4 25 -10 0 -5 14 -10 30 -10 18 0 33 -6 36 -15 4
-9 19 -15 40 -15 19 0 34 -4 34 -10 0 -5 16 -10 35 -10 19 0 35 -4 35 -10 0
-5 18 -10 40 -10 27 0 43 -5 46 -15 4 -9 19 -15 40 -15 19 0 34 -4 34 -10 0
-5 15 -10 34 -10 19 0 38 -5 41 -10 3 -6 19 -10 34 -10 16 0 34 -7 41 -15 7
-8 27 -15 46 -15 18 0 36 -5 39 -10 3 -6 22 -10 41 -10 19 0 42 -4 52 -9 9 -6
34 -13 55 -16 20 -3 37 -10 37 -15 0 -6 23 -10 50 -10 28 0 50 -4 50 -10 0 -5
18 -10 40 -10 22 0 48 -4 58 -9 9 -6 38 -13 65 -16 26 -3 47 -10 47 -16 0 -5
32 -9 70 -9 40 0 70 -4 70 -10 0 -6 27 -10 60 -10 33 0 60 -4 60 -9 0 -4 32
-12 70 -15 39 -4 70 -11 70 -17 0 -5 20 -9 44 -9 25 0 47 -4 50 -9 12 -19 329
-48 672 -61 378 -14 934 10 1179 51 33 6 80 13 105 16 25 3 50 9 55 13 6 5 34
12 63 16 28 3 52 10 52 15 0 5 23 9 50 9 28 0 50 5 50 10 0 6 31 10 74 10 46
0 84 6 102 15 16 8 46 15 67 15 20 0 37 5 37 10 0 6 18 10 39 10 22 0 43 4 46
10 3 5 26 10 51 10 27 0 52 6 60 15 9 8 31 15 49 15 19 0 37 5 40 10 3 6 24
10 45 10 21 0 42 5 45 10 3 6 20 10 36 10 17 0 37 7 45 15 9 8 31 15 50 15 19
0 34 5 34 10 0 6 16 10 35 10 19 0 35 5 35 10 0 6 15 10 34 10 21 0 36 6 40
15 3 9 18 15 35 15 16 0 33 5 36 10 3 6 19 10 36 10 16 0 29 5 29 10 0 6 15
10 34 10 21 0 36 6 40 15 3 9 18 15 36 15 16 0 30 5 30 10 0 6 11 10 25 10 14
0 25 5 25 10 0 6 9 10 21 10 11 0 35 7 52 16 60 32 67 34 92 34 14 0 25 4 25
9 0 4 21 16 48 25 26 10 55 21 64 27 10 5 25 9 34 9 8 0 22 7 30 15 9 8 24 15
34 15 10 0 22 5 25 10 3 6 15 10 26 10 10 0 19 5 19 10 0 6 11 10 24 10 13 0
29 7 36 15 7 8 21 15 31 15 10 0 21 5 24 10 3 6 15 10 26 10 10 0 19 5 19 10
0 6 11 10 24 10 13 0 26 7 30 15 3 8 15 15 26 15 11 0 20 5 20 10 0 6 9 10 19
10 11 0 23 5 26 10 3 6 14 10 25 10 10 0 20 7 24 15 3 8 15 15 26 15 11 0 20
5 20 10 0 6 11 10 25 10 14 0 25 5 25 10 0 6 9 10 19 10 10 0 21 7 25 15 3 8
15 15 26 15 11 0 20 5 20 10 0 6 7 10 15 10 8 0 15 5 15 10 0 6 6 10 14 10 7
0 19 7 26 15 7 8 21 15 31 15 11 0 19 5 19 10 0 6 7 10 14 10 8 0 27 11 42 25
15 14 35 25 45 25 11 0 19 5 19 10 0 6 9 10 19 10 10 0 21 7 25 15 3 8 11 15
18 15 7 0 24 9 38 20 14 11 33 20 43 20 9 0 17 7 17 15 0 8 7 15 15 15 8 0 15
5 15 10 0 6 9 10 20 10 11 0 20 5 20 10 0 6 6 10 13 10 7 0 24 11 39 25 15 14
33 25 40 25 7 0 31 16 52 35 22 19 46 35 53 35 7 0 13 5 13 10 0 6 6 10 14 10
8 0 16 7 20 15 3 8 12 15 21 15 8 0 15 5 15 10 0 6 5 10 11 10 6 0 17 6 24 12
30 27 44 38 50 38 3 0 17 11 31 25 14 14 30 25 37 25 7 0 19 9 27 20 8 11 18
20 23 20 5 0 14 6 22 13 7 6 24 20 37 30 14 10 40 31 58 47 19 17 37 30 42 30
5 0 28 20 52 45 25 25 47 45 51 45 8 0 27 16 86 73 27 26 52 47 55 47 2 0 10
5 17 10 52 44 73 60 80 60 4 0 7 5 7 11 0 11 24 39 34 39 2 0 38 33 78 73 41
39 91 86 112 102 49 39 116 105 116 115 0 4 45 54 100 110 55 56 100 105 100
107 0 8 29 33 38 33 5 0 15 14 22 30 7 17 23 39 36 49 13 11 24 22 24 26 0 3
20 26 45 49 25 24 45 48 45 53 0 5 23 33 50 62 28 29 50 55 50 57 0 10 46 74
53 74 13 0 37 27 37 42 1 18 25 48 39 48 6 0 11 7 11 15 0 8 5 15 10 15 6 0
10 7 10 16 0 9 11 27 25 40 14 13 25 30 25 39 0 8 5 15 10 15 6 0 10 6 10 13
0 8 11 20 25 27 14 7 25 21 25 30 0 9 8 25 18 36 10 10 27 34 37 52 11 17 23
32 27 32 4 0 8 7 8 15 0 8 11 25 25 39 14 14 25 32 25 41 0 19 23 45 39 45 6
0 11 11 11 25 0 14 4 25 9 25 5 0 16 16 25 35 9 19 21 35 26 35 6 0 10 8 10
18 0 10 9 28 20 40 11 12 20 28 20 37 0 9 7 18 15 21 8 4 15 12 15 19 0 18 50
105 61 105 5 0 9 9 9 20 0 11 5 20 10 20 6 0 10 9 10 19 0 11 4 23 10 26 5 3
17 21 26 40 9 19 20 35 25 35 5 0 9 11 9 25 0 16 6 25 15 25 8 0 15 9 15 19 0
11 5 23 10 26 6 3 10 15 10 26 0 10 5 19 10 19 6 0 10 9 10 20 0 11 7 23 15
26 8 4 15 17 15 30 0 13 4 24 8 24 4 0 14 20 21 46 7 25 20 51 27 59 8 7 14
23 14 34 0 12 5 21 10 21 6 0 10 9 10 19 0 11 5 23 10 26 6 3 10 14 10 25 0
10 7 20 15 24 9 3 15 18 15 36 0 16 5 30 10 30 6 0 10 11 10 25 0 14 5 25 10
25 6 0 10 9 10 20 0 11 7 23 15 26 9 4 15 19 15 40 0 19 5 34 10 34 6 0 10 11
10 24 0 14 5 28 10 31 6 3 10 14 10 23 0 9 7 30 15 46 8 15 15 37 15 47 0 11
5 19 10 19 6 0 10 14 10 30 0 18 6 33 15 36 9 4 15 19 15 40 0 19 5 34 10 34
6 0 10 13 10 29 0 17 5 33 10 36 6 3 10 20 10 36 0 17 6 32 15 35 9 4 15 19
15 40 0 19 5 34 10 34 6 0 10 15 10 34 0 19 5 38 10 41 6 3 10 19 10 35 0 16
7 35 15 44 8 8 15 32 15 55 0 22 5 43 10 46 6 3 10 26 10 51 0 24 5 44 10 44
6 0 10 18 10 39 0 22 7 46 15 55 8 8 15 32 15 55 0 23 5 41 10 41 6 0 10 16
10 35 0 19 5 35 10 35 6 0 10 15 10 33 1 17 7 43 15 57 8 14 14 48 15 75 0 28
4 55 9 60 5 6 12 44 14 85 7 103 26 223 37 234 6 6 10 36 10 67 0 32 4 60 9
63 19 12 49 345 61 686 10 281 -1 677 -25 936 -20 212 -26 253 -36 260 -5 3
-9 25 -9 50 0 24 -4 44 -9 44 -5 0 -13 29 -16 65 -4 36 -11 68 -16 71 -5 3 -9
36 -9 75 0 39 -4 69 -10 69 -6 0 -10 36 -10 89 0 52 -4 91 -10 93 -10 3 -24
63 -37 151 -3 20 -9 40 -14 43 -5 3 -9 29 -9 57 0 30 -7 60 -15 71 -8 11 -15
32 -15 47 0 15 -4 31 -10 34 -5 3 -10 24 -10 45 0 21 -4 42 -10 45 -5 3 -10
23 -10 44 0 22 -6 44 -15 51 -8 7 -15 25 -15 41 0 16 -4 29 -10 29 -5 0 -10
16 -10 35 0 19 -4 35 -10 35 -5 0 -10 15 -10 34 0 21 -6 36 -15 40 -9 3 -15
18 -15 35 0 16 -4 33 -10 36 -5 3 -10 19 -10 35 0 16 -4 32 -10 35 -5 3 -10
19 -10 35 0 15 -7 30 -15 34 -9 3 -15 18 -15 36 0 16 -4 30 -10 30 -5 0 -10
11 -10 25 0 14 -4 25 -10 25 -5 0 -10 8 -10 18 0 9 -7 30 -15 46 -8 15 -15 39
-15 52 0 13 -4 24 -10 24 -5 0 -10 9 -10 21 0 11 -7 27 -15 35 -8 9 -15 26
-15 40 0 13 -4 24 -10 24 -5 0 -10 11 -10 25 0 14 -4 25 -10 25 -5 0 -10 13
-10 29 0 17 -4 33 -10 36 -5 3 -17 23 -26 43 -8 20 -20 45 -25 54 -5 10 -9 27
-9 38 0 11 -7 23 -15 26 -8 4 -15 17 -15 30 0 13 -4 24 -10 24 -5 0 -10 9 -10
20 0 11 -4 20 -10 20 -5 0 -10 8 -10 19 0 10 -7 24 -15 31 -8 7 -15 21 -15 31
0 11 -4 19 -10 19 -5 0 -10 6 -10 13 0 18 -28 75 -41 82 -5 4 -9 15 -9 26 0
10 -4 19 -10 19 -5 0 -10 7 -10 15 0 9 -10 32 -23 53 -12 20 -29 51 -37 67 -8
17 -17 32 -20 35 -15 14 -40 61 -40 75 0 8 -4 15 -10 15 -5 0 -10 5 -10 12 0
6 -6 19 -14 27 -7 9 -24 36 -37 61 -22 41 -58 100 -76 126 -11 14 -28 41 -60
94 -15 25 -33 49 -40 53 -7 4 -13 12 -13 18 0 9 -49 89 -61 99 -3 3 -17 23
-31 45 -14 22 -35 50 -47 62 -12 12 -21 27 -21 32 0 6 -11 21 -25 35 -14 14
-25 30 -25 35 0 5 -18 31 -40 56 -22 25 -40 49 -40 53 0 4 -16 24 -35 46 -19
21 -35 41 -35 45 0 3 -15 22 -33 42 -17 20 -45 53 -62 74 -16 21 -43 53 -60
71 -16 18 -43 49 -60 70 -125 161 -667 706 -718 723 -7 2 -26 19 -44 38 -17
18 -35 33 -40 33 -5 0 -17 11 -27 25 -10 14 -25 25 -32 25 -8 0 -14 5 -14 10
0 6 -5 10 -11 10 -14 0 -39 25 -39 39 0 6 -7 11 -15 11 -8 0 -15 4 -15 8 0 5
-12 15 -27 23 -16 8 -43 29 -62 46 -18 18 -36 33 -40 33 -5 0 -17 8 -29 18
-11 10 -33 27 -47 38 -15 10 -33 25 -40 32 -8 6 -18 12 -24 12 -6 0 -11 4 -11
8 0 4 -15 16 -32 27 -18 10 -40 27 -49 37 -9 10 -22 18 -30 18 -7 0 -23 10
-34 23 -11 12 -33 29 -50 37 -16 8 -39 25 -51 38 -12 12 -29 22 -38 22 -9 0
-16 5 -16 10 0 6 -7 10 -15 10 -8 0 -15 7 -15 15 0 8 -8 15 -18 15 -10 0 -28
9 -40 20 -12 11 -28 20 -37 20 -9 0 -18 7 -21 15 -4 8 -15 15 -25 15 -10 0
-19 5 -19 10 0 6 -7 10 -15 10 -8 0 -15 5 -15 10 0 6 -7 10 -15 10 -9 0 -18 7
-21 15 -4 8 -13 15 -20 15 -15 0 -97 50 -102 63 -2 4 -10 7 -18 7 -16 0 -97
49 -102 61 -2 5 -12 9 -22 9 -10 0 -22 5 -25 10 -3 6 -15 10 -26 10 -10 0 -19
7 -19 15 0 8 -8 15 -17 16 -10 0 -40 14 -68 30 -27 16 -58 32 -67 35 -10 4
-18 10 -18 15 0 5 -9 9 -19 9 -11 0 -23 5 -26 10 -3 6 -14 10 -25 10 -10 0
-20 7 -24 15 -3 8 -15 15 -26 15 -11 0 -28 4 -38 9 -9 6 -36 18 -59 27 -24 10
-43 21 -43 26 0 4 -9 8 -20 8 -11 0 -20 5 -20 10 0 6 -11 10 -25 10 -14 0 -25
4 -25 9 0 5 -16 12 -35 15 -19 4 -35 11 -35 16 0 6 -11 10 -25 10 -14 0 -25 5
-25 10 0 6 -11 10 -25 10 -14 0 -25 5 -25 10 0 6 -8 10 -18 10 -10 0 -27 7
-38 15 -10 8 -27 15 -36 15 -10 0 -18 5 -18 10 0 6 -14 10 -31 10 -17 0 -37 7
-45 15 -9 8 -26 15 -40 15 -13 0 -24 4 -24 9 0 8 -9 11 -87 27 -18 3 -33 12
-33 20 0 9 -12 14 -35 14 -19 0 -35 5 -35 10 0 6 -16 10 -35 10 -19 0 -35 5
-35 10 0 6 -15 10 -34 10 -18 0 -39 7 -46 15 -7 8 -28 15 -46 15 -19 0 -34 5
-34 10 0 6 -15 10 -34 10 -19 0 -38 5 -41 10 -3 6 -19 10 -34 10 -16 0 -34 7
-41 15 -7 9 -29 15 -51 15 -22 0 -39 5 -39 10 0 6 -24 10 -54 10 -30 0 -58 5
-61 10 -3 6 -21 10 -40 10 -18 0 -40 7 -49 15 -9 9 -33 15 -60 15 -25 0 -46 5
-46 10 0 6 -20 10 -45 10 -25 0 -45 4 -45 9 0 4 -26 11 -57 14 -32 3 -59 11
-61 17 -2 5 -30 10 -62 10 -32 0 -62 5 -65 10 -3 6 -24 10 -46 10 -21 0 -39 4
-39 8 0 5 -28 14 -62 20 -35 7 -85 17 -113 22 -80 15 -396 48 -570 59 -245 15
-568 20 -795 11z m2425 -3780 c7 -12 -14 -78 -32 -101 -7 -8 -13 -23 -13 -31
0 -9 -7 -21 -15 -28 -8 -7 -15 -21 -15 -32 0 -10 -7 -21 -15 -24 -8 -4 -15
-17 -15 -30 0 -14 -7 -27 -15 -30 -8 -4 -15 -16 -15 -29 0 -13 -7 -25 -15 -29
-8 -3 -15 -16 -15 -30 0 -13 -7 -26 -15 -30 -8 -3 -15 -16 -15 -30 0 -13 -7
-26 -15 -30 -8 -3 -15 -17 -15 -31 0 -14 -4 -25 -10 -25 -5 0 -13 -12 -16 -27
-4 -15 -13 -34 -21 -41 -7 -7 -13 -22 -13 -32 0 -10 -4 -20 -8 -22 -9 -4 -102
-190 -102 -205 0 -6 -7 -16 -15 -23 -8 -7 -15 -20 -15 -30 0 -10 -7 -23 -15
-30 -8 -7 -15 -21 -15 -32 0 -10 -7 -21 -15 -24 -8 -4 -15 -17 -15 -30 0 -14
-7 -27 -15 -30 -8 -4 -15 -17 -15 -30 0 -14 -7 -27 -15 -30 -8 -4 -15 -17 -15
-30 0 -14 -7 -27 -15 -30 -8 -4 -15 -17 -15 -30 0 -14 -7 -27 -15 -30 -8 -4
-15 -16 -15 -29 0 -13 -7 -25 -15 -29 -8 -3 -15 -16 -15 -30 0 -13 -7 -26 -15
-30 -8 -3 -15 -16 -15 -30 0 -13 -7 -26 -15 -30 -8 -3 -15 -16 -15 -30 0 -13
-7 -26 -15 -30 -8 -3 -15 -16 -15 -30 0 -13 -7 -26 -15 -30 -8 -3 -15 -16 -15
-30 0 -13 -7 -26 -15 -30 -8 -3 -15 -14 -15 -24 0 -11 -7 -25 -15 -32 -8 -7
-15 -20 -15 -30 0 -10 -7 -23 -15 -30 -8 -7 -15 -20 -15 -30 0 -10 -7 -23 -15
-30 -8 -7 -15 -20 -15 -30 0 -10 -7 -23 -15 -30 -8 -7 -15 -21 -15 -31 0 -11
-4 -19 -9 -19 -5 0 -12 -13 -16 -30 -4 -16 -10 -30 -15 -30 -5 0 -11 -13 -15
-30 -4 -16 -11 -30 -16 -30 -5 0 -9 -9 -9 -19 0 -11 -7 -26 -15 -35 -8 -8 -15
-21 -15 -30 0 -8 -6 -21 -13 -28 -8 -7 -17 -26 -21 -41 -3 -15 -11 -27 -16
-27 -6 0 -10 -8 -10 -19 0 -10 -7 -24 -15 -31 -8 -7 -15 -20 -15 -30 0 -10 -7
-23 -15 -30 -8 -7 -15 -20 -15 -30 0 -10 -7 -23 -15 -30 -8 -7 -15 -20 -15
-30 0 -10 -7 -23 -15 -30 -8 -7 -15 -20 -15 -30 0 -10 -7 -23 -15 -30 -8 -7
-15 -20 -15 -30 0 -10 -7 -23 -15 -30 -8 -7 -15 -21 -15 -32 0 -10 -7 -21 -15
-24 -8 -4 -15 -17 -15 -30 0 -14 -7 -27 -15 -30 -8 -4 -15 -17 -15 -30 0 -14
-7 -27 -15 -30 -8 -4 -15 -16 -15 -29 0 -13 -7 -25 -15 -29 -8 -3 -15 -16 -15
-30 0 -13 -7 -26 -15 -30 -8 -3 -15 -16 -15 -30 0 -13 -7 -26 -15 -30 -8 -3
-15 -16 -15 -30 0 -13 -7 -26 -15 -30 -8 -3 -15 -16 -15 -30 0 -13 -7 -26 -15
-30 -8 -3 -15 -16 -15 -30 0 -13 -4 -26 -8 -28 -5 -1 -39 -66 -77 -143 -37
-77 -71 -142 -75 -145 -4 -3 -10 -17 -14 -32 -3 -16 -11 -28 -16 -28 -6 0 -10
-11 -10 -25 0 -14 -7 -28 -15 -31 -8 -4 -15 -17 -15 -30 0 -14 -7 -27 -15 -30
-8 -4 -15 -17 -15 -30 0 -14 -7 -27 -15 -30 -8 -4 -15 -17 -15 -30 0 -14 -7
-27 -15 -30 -8 -4 -15 -16 -15 -29 0 -13 -7 -25 -15 -29 -8 -3 -15 -16 -15
-30 0 -13 -7 -26 -15 -30 -8 -3 -15 -16 -15 -30 0 -13 -7 -26 -15 -30 -8 -3
-15 -16 -15 -30 0 -13 -7 -26 -15 -30 -8 -3 -15 -16 -15 -30 0 -13 -7 -26 -15
-30 -8 -3 -15 -14 -15 -24 0 -11 -7 -25 -15 -32 -8 -7 -15 -20 -15 -30 0 -10
-7 -23 -15 -30 -8 -7 -15 -20 -15 -30 0 -10 -7 -23 -15 -30 -8 -7 -15 -20 -15
-30 0 -10 -7 -23 -15 -30 -8 -7 -15 -20 -15 -30 0 -10 -7 -23 -15 -30 -8 -7
-15 -21 -15 -31 0 -11 -4 -19 -10 -19 -5 0 -13 -12 -16 -27 -4 -15 -13 -34
-21 -41 -7 -7 -13 -22 -13 -33 0 -10 -4 -19 -9 -19 -5 0 -12 -13 -16 -30 -4
-16 -10 -30 -15 -30 -5 0 -11 -14 -15 -30 -4 -17 -11 -30 -16 -30 -5 0 -9 -9
-9 -19 0 -11 -7 -26 -15 -35 -8 -8 -15 -21 -15 -29 0 -8 -7 -20 -15 -27 -8 -7
-15 -20 -15 -30 0 -10 -7 -23 -15 -30 -8 -7 -15 -20 -15 -30 0 -10 -7 -23 -15
-30 -8 -7 -15 -20 -15 -30 0 -10 -7 -23 -15 -30 -8 -7 -15 -20 -15 -30 0 -10
-7 -23 -15 -30 -8 -7 -15 -21 -15 -32 0 -10 -7 -21 -15 -24 -8 -4 -15 -17 -15
-30 0 -14 -7 -27 -15 -30 -8 -4 -15 -17 -15 -30 0 -14 -7 -27 -15 -30 -8 -4
-15 -17 -15 -30 0 -14 -7 -27 -15 -30 -8 -4 -15 -16 -15 -29 0 -13 -7 -25 -15
-29 -8 -3 -15 -16 -15 -30 0 -13 -7 -26 -15 -30 -8 -3 -15 -16 -15 -30 0 -13
-7 -26 -15 -30 -8 -3 -15 -16 -15 -30 0 -13 -7 -26 -15 -30 -8 -3 -15 -16 -15
-30 0 -13 -7 -26 -15 -30 -8 -3 -15 -16 -15 -30 0 -13 -7 -26 -15 -30 -8 -3
-15 -15 -15 -26 0 -11 -4 -20 -10 -20 -5 0 -10 -3 -10 -7 0 -5 525 -7 1167 -6
643 2 1467 -1 1832 -5 707 -7 667 -4 685 -52 3 -8 10 -23 16 -32 5 -10 14 -26
20 -35 5 -10 113 -225 240 -478 127 -253 235 -467 240 -475 5 -8 11 -22 14
-30 3 -8 10 -22 15 -30 5 -8 12 -22 15 -30 3 -8 10 -22 15 -30 5 -8 12 -22 15
-30 3 -8 10 -22 15 -30 5 -8 12 -22 15 -30 3 -8 10 -22 15 -30 5 -8 12 -22 15
-30 3 -8 10 -22 15 -30 5 -8 12 -22 15 -30 3 -8 10 -22 15 -30 5 -8 12 -22 15
-30 3 -8 10 -22 15 -30 5 -8 12 -22 15 -30 3 -8 10 -22 15 -30 5 -8 24 -46 43
-85 18 -38 36 -72 39 -75 4 -3 10 -16 14 -30 4 -14 10 -27 14 -30 3 -3 15 -22
25 -43 17 -33 18 -40 5 -48 -8 -5 -1495 -9 -3712 -9 -3403 0 -3698 1 -3704 16
-4 10 0 20 10 26 10 5 17 20 17 32 0 13 7 26 15 30 8 3 15 15 15 26 0 11 7 23
15 26 8 4 15 17 15 30 0 14 7 27 15 30 8 4 15 17 15 30 0 14 7 27 15 30 8 4
15 17 15 30 0 14 7 27 15 30 8 4 15 16 15 29 0 13 7 25 15 29 8 3 15 16 15 30
0 13 7 26 15 30 8 3 15 16 15 30 0 13 7 26 15 30 8 3 15 16 15 30 0 13 7 26
15 30 8 3 15 16 15 30 0 13 7 26 15 30 8 3 15 16 15 30 0 13 7 26 15 30 8 3
15 16 15 30 0 13 7 26 15 30 8 3 15 14 15 24 0 11 7 25 15 32 8 7 15 20 15 30
0 10 7 23 15 30 8 7 15 20 15 30 0 10 7 23 15 30 8 7 15 19 15 27 0 8 7 21 15
29 8 8 12 21 9 29 -4 8 1 18 10 21 9 3 16 17 16 30 0 14 7 27 15 30 8 4 15 17
15 30 0 14 7 27 15 30 8 4 15 17 15 30 0 14 7 27 15 30 8 4 15 17 15 30 0 14
7 27 15 30 8 4 15 16 15 29 0 13 7 25 15 29 8 3 15 16 15 30 0 13 7 26 15 30
8 3 15 16 15 30 0 13 7 26 15 30 8 3 15 16 15 30 0 13 7 26 15 30 8 3 15 16
15 30 0 13 7 26 15 30 8 3 15 16 15 30 0 13 7 26 15 30 8 3 15 14 15 24 0 11
7 25 15 32 8 7 15 21 15 32 0 10 7 21 15 24 8 4 15 17 15 30 0 14 7 27 15 30
8 4 15 17 15 30 0 14 7 27 15 30 8 4 15 16 15 29 0 13 7 25 15 29 8 3 15 16
15 30 0 13 7 26 15 30 8 3 15 16 15 30 0 13 7 26 15 30 8 3 15 16 15 30 0 13
7 26 15 30 8 3 15 16 15 30 0 13 7 26 15 30 8 3 15 15 15 26 0 12 7 28 15 37
8 8 13 18 10 23 -3 4 2 13 10 20 8 7 15 20 15 30 0 10 7 23 15 30 8 7 15 20
15 30 0 10 7 23 15 30 8 7 15 20 15 30 0 10 7 23 15 30 8 7 15 21 15 32 0 10
7 21 15 24 8 4 15 17 15 30 0 14 7 27 15 30 8 4 15 17 15 30 0 14 7 27 15 30
8 4 15 17 15 30 0 14 7 27 15 30 8 4 15 17 15 30 0 14 7 27 15 30 8 4 15 16
15 29 0 13 7 25 15 29 8 3 15 16 15 30 0 13 7 26 15 30 8 3 15 16 15 30 0 13
7 26 15 30 8 3 15 16 15 30 0 13 7 26 15 30 8 3 15 16 15 30 0 13 7 26 15 30
8 3 15 16 15 30 0 13 7 26 15 30 8 3 15 16 15 30 0 13 7 26 15 30 8 3 15 14
15 24 0 11 7 25 15 32 8 7 15 20 15 30 0 10 7 23 15 30 8 7 15 20 15 30 0 10
7 23 15 30 8 7 15 21 15 31 0 11 4 19 10 19 5 0 13 12 16 27 4 15 14 34 21 42
8 7 12 20 9 28 -3 7 1 16 9 19 8 4 15 17 15 30 0 14 7 27 15 30 8 4 15 17 15
30 0 14 7 27 15 30 8 4 15 17 15 30 0 14 7 27 15 30 8 4 15 16 15 29 0 13 7
25 15 29 8 3 15 16 15 30 0 13 7 26 15 30 8 3 15 16 15 30 0 13 7 26 15 30 8
3 15 16 15 30 0 13 7 26 15 30 8 3 15 16 15 30 0 13 7 26 15 30 8 3 15 16 15
30 0 13 7 26 15 30 8 3 15 15 15 26 0 11 7 23 15 26 8 4 15 17 15 30 0 14 7
27 15 30 8 4 15 17 15 30 0 14 7 27 15 30 8 4 15 17 15 30 0 14 7 27 15 30 8
4 15 16 15 29 0 13 7 25 15 29 8 3 15 16 15 30 0 13 7 26 15 30 8 3 15 16 15
30 0 13 7 26 15 30 8 3 15 16 15 30 0 13 7 26 15 30 8 3 15 16 15 30 0 13 7
26 15 30 8 3 15 16 15 30 0 13 7 26 15 30 8 3 15 14 15 24 0 11 7 25 15 32 9
7 14 19 11 26 -3 7 2 18 10 24 8 7 14 20 14 30 0 10 7 23 15 30 8 7 15 20 15
30 0 10 7 23 15 30 8 7 15 21 15 32 0 10 7 21 15 24 8 4 15 17 15 30 0 14 7
27 15 30 8 4 15 17 15 30 0 14 7 27 15 30 8 4 15 17 15 30 0 14 7 27 15 30 8
4 15 17 15 30 0 14 7 27 15 30 8 4 15 16 15 29 0 13 7 25 15 29 8 3 15 16 15
30 0 13 7 26 15 30 8 3 15 16 15 30 0 13 7 26 15 30 8 3 15 16 15 30 0 13 7
26 15 30 8 3 15 16 15 30 0 13 7 26 15 30 8 3 15 16 15 30 0 13 7 26 15 30 8
3 15 16 15 30 0 13 7 26 15 30 8 3 15 14 15 24 0 11 7 25 15 32 8 7 15 20 15
30 0 10 7 23 15 30 8 7 15 20 15 30 0 10 7 23 15 30 8 7 15 21 15 31 0 11 4
19 10 19 5 0 13 12 16 27 4 15 13 34 21 41 7 7 13 22 13 33 0 10 4 19 10 19 5
0 13 12 16 28 4 15 11 30 16 33 5 3 11 16 13 30 3 13 9 25 15 27 5 2 10 15 10
28 0 14 7 27 15 30 8 4 15 16 15 29 0 13 7 25 15 29 8 3 15 16 15 30 0 13 7
26 15 30 8 3 15 16 15 30 0 13 7 26 15 30 8 3 15 16 15 30 0 13 7 26 15 30 8
3 15 16 15 30 0 13 7 26 15 30 8 3 15 15 15 26 0 17 -4 20 -21 15 -12 -4 -419
-4 -906 0 -763 7 -885 10 -890 22 -3 8 -2 18 3 22 5 3 112 212 238 464 l229
457 1858 0 c1235 0 1860 -3 1864 -10z"/>
</g>
</svg>
